<svg xmlns="http://www.w3.org/2000/svg" xmlns:xlink="http://www.w3.org/1999/xlink" width="100" zoomAndPan="magnify" viewBox="0 0 75 74.999997" height="100" preserveAspectRatio="xMidYMid meet" version="1.0"><defs><clipPath id="34e292e34c"><path d="M 6.265625 4.40625 L 6.621094 4.40625 L 6.621094 4.6875 L 6.265625 4.6875 Z M 6.265625 4.40625 " clip-rule="nonzero"/></clipPath><clipPath id="ea29118898"><path d="M 6.601562 4.574219 C 5.925781 4.875 6.523438 4.425781 6.523438 4.425781 " clip-rule="nonzero"/></clipPath><clipPath id="a520f61c57"><path d="M 3.644531 3.386719 L 18.042969 3.386719 L 18.042969 6.941406 L 3.644531 6.941406 Z M 3.644531 3.386719 " clip-rule="nonzero"/></clipPath><clipPath id="017ecd0e9a"><path d="M 17.925781 4.800781 C 3.675781 4.574219 3.601562 4.199219 3.824219 4.050781 C 4.351562 3.523438 11.625 4.875 11.699219 5.550781 C 11.773438 5.925781 9.375 7.050781 8.925781 6.898438 C 8.699219 6.824219 8.550781 6.523438 8.550781 6.300781 C 8.625 6.074219 9.226562 5.699219 9.675781 5.550781 C 10.199219 5.324219 11.550781 5.324219 11.699219 5.550781 C 11.851562 5.699219 11.699219 6.074219 11.550781 6.226562 C 11.023438 6.601562 8.476562 5.925781 7.125 5.699219 C 5.925781 5.398438 4.050781 5.175781 3.75 4.726562 C 3.601562 4.574219 3.601562 4.273438 3.824219 4.050781 C 4.726562 3.226562 17.023438 3.148438 17.925781 4.050781 C 18.148438 4.199219 17.925781 4.800781 17.925781 4.800781 " clip-rule="nonzero"/></clipPath><clipPath id="4f3d2ae513"><path d="M 5.550781 7.5 L 67.800781 7.5 L 67.800781 69.75 L 5.550781 69.75 Z M 5.550781 7.5 " clip-rule="nonzero"/></clipPath><clipPath id="dcb29ca68e"><path d="M 1.652344 2.003906 L 3.867188 2.003906 L 3.867188 2.902344 L 1.652344 2.902344 Z M 1.652344 2.003906 " clip-rule="nonzero"/></clipPath><clipPath id="c3a0619b0f"><path d="M 1.726562 2.023438 C 6.300781 2.476562 2.175781 3.148438 1.726562 2.773438 C 1.574219 2.625 1.726562 2.023438 1.726562 2.023438 " clip-rule="nonzero"/></clipPath><clipPath id="3d024d02f7"><path d="M 2.328125 2.609375 L 6 2.609375 L 6 3.960938 L 2.328125 3.960938 Z M 2.328125 2.609375 " clip-rule="nonzero"/></clipPath><clipPath id="717c3d93cc"><path d="M 2.398438 2.625 C 6 3.074219 3.226562 4.199219 2.925781 3.898438 C 2.699219 3.824219 2.851562 3.148438 2.851562 3.148438 C 2.851562 3.148438 3 3.898438 2.925781 3.898438 C 2.925781 3.898438 2.625 3.449219 2.699219 3.226562 C 2.925781 2.851562 6 2.851562 6 2.925781 C 6 2.925781 2.773438 3.675781 2.398438 3.375 C 2.25 3.226562 2.398438 2.625 2.398438 2.625 " clip-rule="nonzero"/></clipPath></defs><rect x="-7.5" width="90" fill="#ffffff" y="-7.5" height="89.999996" fill-opacity="1"/><rect x="-7.5" width="90" fill="#ffffff" y="-7.5" height="89.999996" fill-opacity="1"/><g clip-path="url(#34e292e34c)"><g clip-path="url(#ea29118898)"><path fill="#0571d3" d="M 2.925781 1.425781 L 9.679688 1.425781 L 9.679688 7.949219 L 2.925781 7.949219 Z M 2.925781 1.425781 " fill-opacity="1" fill-rule="nonzero"/></g></g><g clip-path="url(#a520f61c57)"><g clip-path="url(#017ecd0e9a)"><path fill="#ffffff" d="M 0.75 1.050781 L 21.003906 1.050781 L 21.003906 9.976562 L 0.75 9.976562 Z M 0.75 1.050781 " fill-opacity="1" fill-rule="nonzero"/></g></g><g clip-path="url(#4f3d2ae513)"><path fill="#dedede" d="M 65.351562 26.507812 C 63.785156 22.800781 61.539062 19.472656 58.683594 16.617188 C 55.828125 13.757812 52.5 11.515625 48.792969 9.949219 C 44.953125 8.324219 40.875 7.5 36.675781 7.5 C 32.476562 7.5 28.398438 8.324219 24.558594 9.949219 C 20.851562 11.515625 17.523438 13.757812 14.667969 16.617188 C 11.808594 19.472656 9.566406 22.800781 8 26.507812 C 6.375 30.347656 5.550781 34.425781 5.550781 38.625 C 5.550781 42.824219 6.375 46.902344 7.996094 50.742188 C 9.566406 54.449219 11.808594 57.777344 14.664062 60.632812 C 17.523438 63.492188 20.851562 65.734375 24.558594 67.300781 C 28.398438 68.925781 32.476562 69.75 36.675781 69.75 C 40.875 69.75 44.953125 68.925781 48.792969 67.300781 C 52.5 65.734375 55.828125 63.492188 58.683594 60.632812 C 61.542969 57.777344 63.785156 54.449219 65.351562 50.742188 C 66.976562 46.902344 67.800781 42.824219 67.800781 38.625 C 67.800781 34.425781 66.976562 30.347656 65.351562 26.507812 Z M 27.730469 29.15625 C 28.441406 25.738281 31.125 23.050781 34.546875 22.339844 C 40.976562 21 46.546875 26.574219 45.207031 33 C 44.496094 36.421875 41.8125 39.105469 38.390625 39.820312 C 31.960938 41.15625 26.390625 35.585938 27.730469 29.15625 Z M 37.402344 64.535156 C 37.269531 64.539062 37.140625 64.542969 37.011719 64.542969 L 36.980469 64.542969 C 36.878906 64.546875 36.777344 64.546875 36.675781 64.546875 L 36.59375 64.546875 C 29.542969 64.523438 23.152344 61.6875 18.492188 57.097656 C 20.160156 48.691406 27.574219 42.359375 36.46875 42.359375 C 45.480469 42.359375 52.972656 48.867188 54.507812 57.4375 C 50.023438 61.6875 44.023438 64.351562 37.402344 64.535156 Z M 37.402344 64.535156 " fill-opacity="1" fill-rule="nonzero"/></g><g clip-path="url(#dcb29ca68e)"><g clip-path="url(#c3a0619b0f)"><path fill="#ffffff" d="M -1.273438 -0.976562 L 9.378906 -0.976562 L 9.378906 5.773438 L -1.273438 5.773438 Z M -1.273438 -0.976562 " fill-opacity="1" fill-rule="nonzero"/></g></g><g clip-path="url(#3d024d02f7)"><g clip-path="url(#717c3d93cc)"><path fill="#ffffff" d="M -0.601562 -0.375 L 8.988281 -0.375 L 8.988281 6.976562 L -0.601562 6.976562 Z M -0.601562 -0.375 " fill-opacity="1" fill-rule="nonzero"/></g></g></svg>