<svg xmlns="http://www.w3.org/2000/svg" id="Layer_1" version="1.1" viewBox="0 0 1591 750">
  <!-- Generator: Adobe Illustrator 29.1.0, SVG Export Plug-In . SVG Version: 2.1.0 Build 142)  -->
  <defs fill="#000000">
    <style>
      .st0 {
        fill: #ffffff;
      }
    </style>
  </defs>
  <path class="st0" d="M152.95,265.65c4.54-4.42,11.91-7.93,18.32-8.41h261.69c14.08,1.28,24.13,10.68,26.68,24.5l-1.07,191.15c-4.96,11.63-13.95,18.72-26.75,19.88H173.55c-15.85-1.12-27.62-11.89-29-27.87,3.8-58.1-4.92-122.41,0-179.78.63-7.29,3.15-14.33,8.4-19.46ZM410.73,320.98c-9.17-.39-18.71-.45-27.85-1.16-36.95-2.85-84.34-10.42-120.56-6.8-55.15,5.51-78.21,78.27-35.85,116.58,50.35,45.53,127.24-3.1,110.8-67.73l64.32-14.21,9.13-26.68Z" fill="#000000"/>
  <path class="st0" d="M784.35,299.37c2.7.83,1.5,7.8,1.72,10.24,12.95-12.18,31.2-16.49,46.02-4.52l10.25,11.35c14.95-23.54,56.53-25.71,70.16.36,1.02,1.95,4.34,10.05,4.34,11.58v73.36h-28.43v-64.26c0-.49-2.95-6.81-3.6-7.78-7.49-11.3-24.56-7.94-31.01,2.74-.45.74-2.93,6.92-2.93,7.31v61.99h-28.43c.93-5.63-.93-11.16-1.18-16.44-.74-15.2,1.7-33.17.05-47.82-1.98-17.61-20-19.2-30.15-7.4-1.26,1.46-5.11,7.1-5.11,8.54v63.12h-28.43v-102.36h26.73Z" fill="#000000"/>
  <path class="st0" d="M617.73,398.88c-5.38,45.39-67.09,54.05-97.65,28.28l10.71-20.88c21.66,16.86,64.7,14.28,62.49-20.48-35.82,32.01-85.24,4.07-79.87-43.48,4.2-37.2,47.94-60.8,75.88-30.46v-12.51h28.45v99.52ZM564.03,322.38c-31.39,3.29-28.03,53.91,3.04,53.23,30.98-.68,30.61-56.75-3.04-53.23Z" fill="#000000"/>
  <path class="st0" d="M1087.46,389.22v48.91h-28.43v-137.05l1.71-1.71h26.73v10.23c5.29-2.36,9.18-6.34,14.8-8.51,20.49-7.9,41.65.3,53.22,18.4,29.85,46.69-21.58,112.9-68.02,69.73ZM1106.49,322.39c-5.34.9-11.38,6.27-14.3,10.72-14.28,21.8,4.57,56.6,29.99,42.5,23.78-13.19,13.55-58.13-15.69-53.22Z" fill="#000000"/>
  <path class="st0" d="M1038.55,360.78h-72.79c3.45,22.73,35,22.74,49.32,9.18l15.5,18.1c-14.62,10.91-28.52,16.44-47.18,14.79-62.95-5.58-61.57-100.86,1.07-104.67,38.36-2.33,60.67,25.56,54.08,62.61ZM1010.12,340.31c-2.64-25.93-39.8-23.34-44.36,0h44.36Z" fill="#000000"/>
  <path class="st0" d="M731.47,401.73h-25.59c-3.13-2.71-1.26-7.62-1.72-11.37l-8.05,7.29c-28.56,18.2-69.77-10.57-53.59-43.35,3.54-7.17,18.15-16.26,25.82-16.26h32.98c3.72,0,.18-9.37-1.19-11.32-8.62-12.37-33.55-2.48-43.75,4.01l-12.48-18.19c20.02-17.31,71.09-22.93,83.84,4.77.64,1.39,3.71,10.33,3.71,11.07v73.36ZM701.38,357.66c-9.43,3.06-32.52-4.5-33.27,10.69-.73,14.68,28.66,15.04,33.84-.12.71-2.08,2.61-10-.57-10.57Z" fill="#000000"/>
  <path class="st0" d="M1326.3,401.73h-26.16v-11.37c-12.03,12.16-26.25,15.82-42.69,10.28-24.7-8.32-32.36-44.02-8.41-57.41,2.08-1.16,12.49-5.19,14.14-5.19h34.69c.75-26.08-32.8-17.36-46.07-6.84l-13.07-19.29c21.26-15.33,69.49-23.01,83.64,4.48.65,1.27,3.94,9.19,3.94,9.71v75.63ZM1297.87,358.51h-26.73c-.91,0-5.87,3.35-6.56,4.82-7.55,16.16,19.05,21.9,29.34,10,3.94-4.56,4.45-8.94,3.95-14.82Z" fill="#000000"/>
  <path class="st0" d="M1419.57,401.73c-1.88-20.81,3.11-47.36-1.41-67.4-3.45-15.29-21.44-17.82-31.56-7.09-1.48,1.56-5.7,9.81-5.7,11.36v63.12h-28.43v-102.36h28.43v10.23c4.54-1.75,7.46-5.61,12.08-7.82,26.31-12.55,55.02,7.09,55.02,35.69v62.55l-1.71,1.71h-26.73Z" fill="#000000"/>
  <rect class="st0" x="1185.27" y="261.83" width="28.43" height="139.89" fill="#000000"/>
</svg>